<?xml version="1.0" encoding="iso-8859-1"?>
<!-- Generator: Adobe Illustrator 19.0.0, SVG Export Plug-In . SVG Version: 6.00 Build 0)  -->
<svg version="1.0" id="Camada_1" xmlns="http://www.w3.org/2000/svg" xmlns:xlink="http://www.w3.org/1999/xlink" x="0px" y="0px"
	 width="20px" height="20px" viewBox="0 0 20 20" enable-background="new 0 0 20 20" xml:space="preserve">
<g transform="translate(-15.44 -72.94)">
	<g>
		<path id="XMLID_2_" fill="#0D0F0F" d="M16.6,92.9c-0.3,0-0.6-0.1-0.8-0.4c-0.4-0.5-0.4-1.2,0-1.7l17.7-17.6
			c0.5-0.5,1.2-0.4,1.6,0.1c0.4,0.5,0.4,1.2,0,1.7L17.4,92.6C17.1,92.8,16.9,92.9,16.6,92.9z"/>
	</g>
	<g>
		<path id="XMLID_1_" fill="#0D0F0F" d="M34.3,92.9c-0.3,0-0.6-0.1-0.8-0.3L15.8,75c-0.5-0.5-0.5-1.2,0-1.7c0.4-0.5,1.2-0.5,1.6-0.1
			l17.7,17.6c0.5,0.5,0.5,1.2,0,1.7C34.9,92.8,34.6,92.9,34.3,92.9z"/>
	</g>
</g>
</svg>
