<svg width="24" height="24" viewBox="0 0 24 24" fill="none" xmlns="http://www.w3.org/2000/svg">
<path d="M15.24 22.27H15.11C10.67 22.27 8.53002 20.52 8.16002 16.6C8.12002 16.19 8.42002 15.82 8.84002 15.78C9.24002 15.74 9.62002 16.05 9.66002 16.46C9.95002 19.6 11.43 20.77 15.12 20.77H15.25C19.32 20.77 20.76 19.33 20.76 15.26V8.74001C20.76 4.67001 19.32 3.23001 15.25 3.23001H15.12C11.41 3.23001 9.93002 4.42001 9.66002 7.62001C9.61002 8.03001 9.26002 8.34001 8.84002 8.30001C8.42002 8.27001 8.12001 7.90001 8.15001 7.49001C8.49001 3.51001 10.64 1.73001 15.11 1.73001H15.24C20.15 1.73001 22.25 3.83001 22.25 8.74001V15.26C22.25 20.17 20.15 22.27 15.24 22.27Z" fill="#07C7E0"/>
<path d="M15 12.75H3.62C3.21 12.75 2.87 12.41 2.87 12C2.87 11.59 3.21 11.25 3.62 11.25H15C15.41 11.25 15.75 11.59 15.75 12C15.75 12.41 15.41 12.75 15 12.75Z" fill="#07C7E0"/>
<path d="M5.85 16.1C5.66 16.1 5.47 16.03 5.32 15.88L1.97 12.53C1.68 12.24 1.68 11.76 1.97 11.47L5.32 8.12C5.61 7.83 6.09 7.83 6.38 8.12C6.67 8.41 6.67 8.89 6.38 9.18L3.56 12L6.38 14.82C6.67 15.11 6.67 15.59 6.38 15.88C6.24 16.03 6.04 16.1 5.85 16.1Z" fill="#07C7E0"/>
</svg>
