<svg width="215" height="32" viewBox="0 0 215 32" fill="none" xmlns="http://www.w3.org/2000/svg">
<path d="M131.154 14.4836C130.428 12.441 128.855 10.7698 126.858 10.089C126.133 9.84139 125.346 9.6557 124.499 9.6557H119.781C118.934 9.6557 118.147 9.77949 117.421 10.089C115.425 10.8317 113.791 12.441 113.126 14.4836C112.884 15.2263 112.703 16.0309 112.703 16.8975V24.1393C112.703 25.0058 112.824 25.8104 113.126 26.5532C113.852 28.5957 115.425 30.2669 117.421 30.9478C118.147 31.1954 118.934 31.381 119.781 31.381H126.858C128.189 31.381 129.218 30.3288 129.218 28.9671C129.218 27.6054 128.189 26.5532 126.858 26.5532C126.737 26.5532 126.556 26.5532 126.435 26.6151C126.435 26.6151 126.435 26.6151 126.435 26.5532H119.781C118.45 26.5532 117.421 25.501 117.421 24.1393H124.499C125.346 24.1393 126.133 24.0155 126.858 23.706C128.855 22.9632 130.488 21.354 131.154 19.3114C131.396 18.5687 131.577 17.764 131.577 16.8975C131.577 16.0309 131.456 15.2263 131.154 14.4836ZM125.044 19.2495C125.044 19.2495 125.044 19.3114 125.044 19.2495L119.841 19.3114C118.692 19.3114 117.724 18.4449 117.542 17.2689V16.8356C117.542 15.4739 118.571 14.4217 119.902 14.4217H124.62C125.951 14.4217 126.979 15.4739 126.979 16.8356C126.858 18.0735 126.072 19.0019 125.044 19.2495Z" fill="black"/>
<path d="M79.0068 28.9671C79.0068 30.3288 77.9783 31.381 76.6475 31.381H67.2102C66.3633 31.381 65.5768 31.2572 64.8509 30.9478C62.8545 30.205 61.2212 28.5957 60.5557 26.5532C60.3137 25.8104 60.1323 25.0058 60.1323 24.1393V16.8975C60.1323 16.0309 60.2533 15.2263 60.5557 14.4836C61.2817 12.441 62.8545 10.7698 64.8509 10.089C65.5768 9.84139 66.3633 9.6557 67.2102 9.6557H76.6475C77.9783 9.6557 79.0068 10.7079 79.0068 12.0696C79.0068 13.4313 77.9783 14.4836 76.6475 14.4836H67.2102C65.8793 14.4836 64.8509 15.5358 64.8509 16.8975V24.1393C64.8509 25.501 65.8793 26.5532 67.2102 26.5532H76.6475C77.9179 26.5532 79.0068 27.6054 79.0068 28.9671Z" fill="black"/>
<path d="M33.0304 16.8975V28.9671C33.0304 30.3288 32.002 31.381 30.6711 31.381C29.3402 31.381 28.3118 30.3288 28.3118 28.9671V16.8975C28.3118 15.5358 27.2833 14.4836 25.9524 14.4836H21.2338C19.9029 14.4836 18.8745 15.5358 18.8745 16.8975V28.9671C18.8745 30.3288 17.8461 31.381 16.5152 31.381C15.1843 31.381 14.1559 30.3288 14.1559 28.9671V16.8975C14.1559 15.5358 13.1275 14.4836 11.7966 14.4836H7.07794C5.74705 14.4836 4.71863 15.5358 4.71863 16.8975V28.9671C4.71863 30.3288 3.69021 31.381 2.35931 31.381C1.02842 31.381 0 30.3288 0 28.9671V16.8975C0 16.0309 0.12099 15.2263 0.423467 14.4836C1.14941 12.441 2.72228 10.7698 4.71863 10.089C5.44457 9.84139 6.23101 9.6557 7.07794 9.6557H11.7966C12.6435 9.6557 13.4299 9.77949 14.1559 10.089C15.0633 10.3984 15.8497 10.8936 16.5152 11.5126C17.1806 10.8936 17.9671 10.3984 18.8745 10.089C19.6005 9.84139 20.3869 9.6557 21.2338 9.6557H25.9524C26.7994 9.6557 27.5858 9.77949 28.3118 10.089C30.3081 10.8317 31.9415 12.441 32.6069 14.4836C32.9094 15.2263 33.0304 16.0309 33.0304 16.8975Z" fill="black"/>
<path d="M41.1368 12.0696V28.9671C41.1368 30.3288 40.1084 31.381 38.7775 31.381C37.4466 31.381 36.4182 30.3288 36.4182 28.9671V12.0696C36.4182 10.7079 37.4466 9.6557 38.7775 9.6557C40.1084 9.6557 41.1368 10.7079 41.1368 12.0696Z" fill="black"/>
<path d="M38.7775 4.82785C40.0805 4.82785 41.1368 3.7471 41.1368 2.41393C41.1368 1.08075 40.0805 0 38.7775 0C37.4745 0 36.4182 1.08075 36.4182 2.41393C36.4182 3.7471 37.4745 4.82785 38.7775 4.82785Z" fill="#07C7E0"/>
<path d="M100.846 14.4836C100.12 12.441 98.5467 10.7698 96.5504 10.089C95.8244 9.84139 95.038 9.6557 94.191 9.6557H89.4724C88.6255 9.6557 87.839 9.77949 87.1131 10.089C85.1168 10.8317 83.4834 12.441 82.8179 14.4836C82.576 15.2263 82.3945 16.0309 82.3945 16.8975V24.1393C82.3945 25.0058 82.5155 25.8104 82.8179 26.5532C83.5439 28.5957 85.1168 30.2669 87.1131 30.9478C87.839 31.1954 88.6255 31.381 89.4724 31.381H94.191C95.038 31.381 95.8244 31.2572 96.5504 30.9478C98.5467 30.205 100.18 28.5957 100.846 26.5532C101.087 25.8104 101.269 25.0058 101.269 24.1393V16.8975C101.269 16.0309 101.087 15.2263 100.846 14.4836ZM96.5504 24.1393C96.5504 25.501 95.5219 26.5532 94.191 26.5532H89.4724C88.1415 26.5532 87.1131 25.501 87.1131 24.1393V16.8975C87.1131 15.5358 88.1415 14.4836 89.4724 14.4836H94.191C95.5219 14.4836 96.5504 15.5358 96.5504 16.8975V24.1393Z" fill="black"/>
<path d="M98.9097 31.381C100.241 31.381 101.269 30.3288 101.269 28.9671V12.0696C101.269 10.7079 100.241 9.6557 98.9097 9.6557C97.5788 9.6557 96.5504 10.7079 96.5504 12.0696V28.9671C96.5504 30.3288 97.5788 31.381 98.9097 31.381Z" fill="black"/>
<path d="M196.186 14.4836C195.46 12.441 193.887 10.7698 191.891 10.089C191.165 9.84139 190.378 9.6557 189.531 9.6557H184.813C183.966 9.6557 183.18 9.77949 182.454 10.089C180.457 10.8317 178.824 12.441 178.158 14.4836C177.916 15.2263 177.735 16.0309 177.735 16.8975V24.1393C177.735 25.0058 177.856 25.8104 178.158 26.5532C178.884 28.5957 180.457 30.2669 182.454 30.9478C183.18 31.1954 183.966 31.381 184.813 31.381H189.531C190.378 31.381 191.165 31.2572 191.891 30.9478C193.887 30.205 195.521 28.5957 196.186 26.5532C196.428 25.8104 196.609 25.0058 196.609 24.1393V16.8975C196.609 16.0309 196.428 15.2263 196.186 14.4836ZM191.891 24.1393C191.891 25.501 190.862 26.5532 189.531 26.5532H184.813C183.482 26.5532 182.454 25.501 182.454 24.1393V16.8975C182.454 15.5358 183.482 14.4836 184.813 14.4836H189.531C190.862 14.4836 191.891 15.5358 191.891 16.8975V24.1393Z" fill="black"/>
<path d="M194.25 31.381C195.581 31.381 196.609 30.3288 196.609 28.9671V12.0696C196.609 10.7079 195.581 9.6557 194.25 9.6557C192.919 9.6557 191.891 10.7079 191.891 12.0696V28.9671C191.891 30.3288 192.919 31.381 194.25 31.381Z" fill="black"/>
<path d="M172.048 0C170.717 0 169.689 1.05222 169.689 2.41393V10.089C168.963 9.84139 168.177 9.65571 167.33 9.65571H162.611C161.764 9.65571 160.978 9.7795 160.252 10.089C158.255 10.8317 156.622 12.441 155.957 14.4836C155.715 15.2263 155.533 16.0309 155.533 16.8975V24.1393C155.533 25.0058 155.654 25.8104 155.957 26.5532C156.683 28.5957 158.255 30.2669 160.252 30.9478C160.978 31.1954 161.764 31.381 162.611 31.381H167.33C168.177 31.381 168.963 31.2573 169.689 30.9478C171.685 30.205 173.319 28.5957 173.984 26.5532C174.226 25.8104 174.408 25.0058 174.408 24.1393V2.41393C174.408 1.05222 173.379 0 172.048 0ZM169.689 24.1393C169.689 25.501 168.661 26.5532 167.33 26.5532H162.611C161.28 26.5532 160.252 25.501 160.252 24.1393V16.8975C160.252 15.5358 161.28 14.4836 162.611 14.4836H167.33C168.661 14.4836 169.689 15.5358 169.689 16.8975V24.1393Z" fill="black"/>
<path d="M152.629 14.4836C151.904 12.441 150.331 10.7698 148.334 10.089C147.608 9.84139 146.822 9.6557 145.975 9.6557H143.858H143.374H141.256C140.409 9.6557 139.623 9.84139 138.897 10.089C136.901 10.7698 135.328 12.441 134.602 14.4836C134.299 15.2263 134.178 16.0309 134.178 16.8975V28.9671C134.178 30.3288 135.207 31.381 136.538 31.381C137.869 31.381 138.897 30.3288 138.897 28.9671V16.8975C138.897 15.5358 139.925 14.4836 141.256 14.4836H143.374H143.858H145.975C147.306 14.4836 148.334 15.5358 148.334 16.8975V28.9671C148.334 30.3288 149.363 31.381 150.694 31.381C152.024 31.381 153.053 30.3288 153.053 28.9671V16.8975C153.053 16.0309 152.932 15.2263 152.629 14.4836Z" fill="black"/>
<path d="M203.143 31.381C204.474 31.381 205.502 30.3288 205.502 28.9671V12.0696C205.502 10.7079 204.474 9.6557 203.143 9.6557C201.812 9.6557 200.784 10.7079 200.784 12.0696V28.9671C200.784 30.3288 201.812 31.381 203.143 31.381Z" fill="black"/>
<path d="M207.862 9.6557C207.015 9.6557 206.228 9.84139 205.502 10.089C203.506 10.7698 201.933 12.441 201.207 14.4836C200.905 15.2263 200.784 16.0309 200.784 16.8975V28.8433C200.784 30.1431 201.752 31.3191 203.082 31.381C204.474 31.4429 205.502 30.3288 205.502 28.9671V16.8975C205.502 15.5358 206.531 14.4836 207.862 14.4836H212.641C213.972 14.4836 215 13.4313 215 12.0696C215 10.7079 213.972 9.6557 212.641 9.6557H207.862Z" fill="black"/>
<path d="M106.956 31.381C108.286 31.381 109.315 30.3288 109.315 28.9671V2.41393C109.315 1.05222 108.286 0 106.956 0C105.625 0 104.596 1.05222 104.596 2.41393V28.9671C104.596 30.3288 105.625 31.381 106.956 31.381Z" fill="black"/>
<path d="M48.6381 31.2572L56.926 9.5319C57.168 8.91295 56.8655 8.2321 56.2605 7.98452C55.6556 7.73693 54.9901 8.04641 54.7481 8.66537L46.4603 30.3288C46.2183 30.9478 46.5208 31.6286 47.1258 31.8762C47.7307 32.1857 48.3962 31.8762 48.6381 31.2572Z" fill="#07C7E0"/>
</svg>
